<mxfile host="app.diagrams.net" modified="2021-01-10T17:24:35.373Z" agent="5.0 (Windows NT 10.0; Win64; x64) AppleWebKit/537.36 (KHTML, like Gecko) Chrome/87.0.4280.101 Safari/537.36" etag="SW4MZn-boB8tY8ODLZ6w" version="14.1.9" type="github">
  <diagram id="YONpodNE3ms4rtZ58HXv" name="Page-1">
    <mxGraphModel dx="1038" dy="509" grid="1" gridSize="10" guides="1" tooltips="1" connect="1" arrows="1" fold="1" page="1" pageScale="1" pageWidth="850" pageHeight="1100" math="0" shadow="0">
      <root>
        <mxCell id="0" />
        <mxCell id="1" parent="0" />
        <mxCell id="4nyOCPpRSjzjvYDvbEU9-5" value="Igrač&lt;br&gt;" style="shape=umlActor;verticalLabelPosition=bottom;verticalAlign=top;html=1;" vertex="1" parent="1">
          <mxGeometry x="100" y="115" width="30" height="60" as="geometry" />
        </mxCell>
        <mxCell id="4nyOCPpRSjzjvYDvbEU9-6" value="Igranje Minesweaper" style="ellipse;whiteSpace=wrap;html=1;" vertex="1" parent="1">
          <mxGeometry x="170" y="105" width="140" height="70" as="geometry" />
        </mxCell>
        <mxCell id="4nyOCPpRSjzjvYDvbEU9-7" value="" style="endArrow=none;html=1;exitX=0.5;exitY=0.5;exitDx=0;exitDy=0;exitPerimeter=0;" edge="1" parent="1" source="4nyOCPpRSjzjvYDvbEU9-5" target="4nyOCPpRSjzjvYDvbEU9-6">
          <mxGeometry width="50" height="50" relative="1" as="geometry">
            <mxPoint x="340" y="330" as="sourcePoint" />
            <mxPoint x="390" y="280" as="targetPoint" />
          </mxGeometry>
        </mxCell>
        <mxCell id="4nyOCPpRSjzjvYDvbEU9-8" value="Napravi akciju na ploćici" style="ellipse;whiteSpace=wrap;html=1;" vertex="1" parent="1">
          <mxGeometry x="355" y="90" width="140" height="70" as="geometry" />
        </mxCell>
        <mxCell id="4nyOCPpRSjzjvYDvbEU9-9" value="Stavi zastavicu" style="ellipse;whiteSpace=wrap;html=1;" vertex="1" parent="1">
          <mxGeometry x="520" y="35" width="140" height="70" as="geometry" />
        </mxCell>
        <mxCell id="4nyOCPpRSjzjvYDvbEU9-10" value="Otkij ploćicu" style="ellipse;whiteSpace=wrap;html=1;" vertex="1" parent="1">
          <mxGeometry x="530" y="130" width="140" height="70" as="geometry" />
        </mxCell>
        <mxCell id="4nyOCPpRSjzjvYDvbEU9-11" value="" style="endArrow=classic;html=1;" edge="1" parent="1" source="4nyOCPpRSjzjvYDvbEU9-8" target="4nyOCPpRSjzjvYDvbEU9-10">
          <mxGeometry width="50" height="50" relative="1" as="geometry">
            <mxPoint x="340" y="290" as="sourcePoint" />
            <mxPoint x="390" y="240" as="targetPoint" />
          </mxGeometry>
        </mxCell>
        <mxCell id="4nyOCPpRSjzjvYDvbEU9-12" value="" style="endArrow=classic;html=1;" edge="1" parent="1" source="4nyOCPpRSjzjvYDvbEU9-8" target="4nyOCPpRSjzjvYDvbEU9-9">
          <mxGeometry width="50" height="50" relative="1" as="geometry">
            <mxPoint x="340" y="290" as="sourcePoint" />
            <mxPoint x="390" y="240" as="targetPoint" />
          </mxGeometry>
        </mxCell>
        <mxCell id="4nyOCPpRSjzjvYDvbEU9-13" value="" style="endArrow=classic;html=1;" edge="1" parent="1" source="4nyOCPpRSjzjvYDvbEU9-6" target="4nyOCPpRSjzjvYDvbEU9-8">
          <mxGeometry width="50" height="50" relative="1" as="geometry">
            <mxPoint x="340" y="290" as="sourcePoint" />
            <mxPoint x="330" y="120" as="targetPoint" />
          </mxGeometry>
        </mxCell>
        <mxCell id="4nyOCPpRSjzjvYDvbEU9-15" value="" style="endArrow=none;html=1;" edge="1" parent="1" source="4nyOCPpRSjzjvYDvbEU9-6" target="4nyOCPpRSjzjvYDvbEU9-16">
          <mxGeometry width="50" height="50" relative="1" as="geometry">
            <mxPoint x="340" y="290" as="sourcePoint" />
            <mxPoint x="417.69294630380773" y="257.1158055184187" as="targetPoint" />
          </mxGeometry>
        </mxCell>
        <mxCell id="4nyOCPpRSjzjvYDvbEU9-16" value="Igraj ponovno?" style="ellipse;whiteSpace=wrap;html=1;" vertex="1" parent="1">
          <mxGeometry x="450" y="280" width="140" height="70" as="geometry" />
        </mxCell>
        <mxCell id="4nyOCPpRSjzjvYDvbEU9-17" value="Izadi iz igre" style="ellipse;whiteSpace=wrap;html=1;" vertex="1" parent="1">
          <mxGeometry x="160" y="310" width="140" height="70" as="geometry" />
        </mxCell>
        <mxCell id="4nyOCPpRSjzjvYDvbEU9-18" value="" style="endArrow=classic;html=1;" edge="1" parent="1" source="4nyOCPpRSjzjvYDvbEU9-17" target="4nyOCPpRSjzjvYDvbEU9-16">
          <mxGeometry width="50" height="50" relative="1" as="geometry">
            <mxPoint x="340" y="290" as="sourcePoint" />
            <mxPoint x="390" y="240" as="targetPoint" />
          </mxGeometry>
        </mxCell>
        <mxCell id="4nyOCPpRSjzjvYDvbEU9-19" value="Igraj ponovno" style="ellipse;whiteSpace=wrap;html=1;" vertex="1" parent="1">
          <mxGeometry x="270" y="410" width="140" height="70" as="geometry" />
        </mxCell>
        <mxCell id="4nyOCPpRSjzjvYDvbEU9-20" value="" style="endArrow=classic;html=1;" edge="1" parent="1" source="4nyOCPpRSjzjvYDvbEU9-19" target="4nyOCPpRSjzjvYDvbEU9-16">
          <mxGeometry width="50" height="50" relative="1" as="geometry">
            <mxPoint x="340" y="290" as="sourcePoint" />
            <mxPoint x="390" y="240" as="targetPoint" />
          </mxGeometry>
        </mxCell>
        <mxCell id="4nyOCPpRSjzjvYDvbEU9-21" value="Igra gotova" style="ellipse;whiteSpace=wrap;html=1;" vertex="1" parent="1">
          <mxGeometry x="710" y="90" width="140" height="70" as="geometry" />
        </mxCell>
        <mxCell id="4nyOCPpRSjzjvYDvbEU9-22" value="Pobjeda" style="ellipse;whiteSpace=wrap;html=1;" vertex="1" parent="1">
          <mxGeometry x="600" y="220" width="140" height="70" as="geometry" />
        </mxCell>
        <mxCell id="4nyOCPpRSjzjvYDvbEU9-23" value="Poraz" style="ellipse;whiteSpace=wrap;html=1;" vertex="1" parent="1">
          <mxGeometry x="690" y="310" width="140" height="70" as="geometry" />
        </mxCell>
        <mxCell id="4nyOCPpRSjzjvYDvbEU9-24" value="" style="endArrow=classic;html=1;" edge="1" parent="1" source="4nyOCPpRSjzjvYDvbEU9-22" target="4nyOCPpRSjzjvYDvbEU9-21">
          <mxGeometry width="50" height="50" relative="1" as="geometry">
            <mxPoint x="340" y="290" as="sourcePoint" />
            <mxPoint x="390" y="240" as="targetPoint" />
          </mxGeometry>
        </mxCell>
        <mxCell id="4nyOCPpRSjzjvYDvbEU9-25" value="" style="endArrow=classic;html=1;" edge="1" parent="1" source="4nyOCPpRSjzjvYDvbEU9-23" target="4nyOCPpRSjzjvYDvbEU9-21">
          <mxGeometry width="50" height="50" relative="1" as="geometry">
            <mxPoint x="340" y="290" as="sourcePoint" />
            <mxPoint x="390" y="240" as="targetPoint" />
          </mxGeometry>
        </mxCell>
        <mxCell id="4nyOCPpRSjzjvYDvbEU9-26" value="" style="endArrow=none;html=1;" edge="1" parent="1" source="4nyOCPpRSjzjvYDvbEU9-16" target="4nyOCPpRSjzjvYDvbEU9-22">
          <mxGeometry width="50" height="50" relative="1" as="geometry">
            <mxPoint x="300" y="310" as="sourcePoint" />
            <mxPoint x="370" y="284" as="targetPoint" />
          </mxGeometry>
        </mxCell>
        <mxCell id="4nyOCPpRSjzjvYDvbEU9-27" value="" style="endArrow=none;html=1;" edge="1" parent="1" source="4nyOCPpRSjzjvYDvbEU9-23" target="4nyOCPpRSjzjvYDvbEU9-16">
          <mxGeometry width="50" height="50" relative="1" as="geometry">
            <mxPoint x="340" y="290" as="sourcePoint" />
            <mxPoint x="390" y="240" as="targetPoint" />
          </mxGeometry>
        </mxCell>
        <mxCell id="4nyOCPpRSjzjvYDvbEU9-28" value="Nova igra" style="ellipse;whiteSpace=wrap;html=1;" vertex="1" parent="1">
          <mxGeometry x="270" width="140" height="70" as="geometry" />
        </mxCell>
        <mxCell id="4nyOCPpRSjzjvYDvbEU9-29" value="" style="endArrow=none;html=1;" edge="1" parent="1" source="4nyOCPpRSjzjvYDvbEU9-6" target="4nyOCPpRSjzjvYDvbEU9-28">
          <mxGeometry width="50" height="50" relative="1" as="geometry">
            <mxPoint x="340" y="290" as="sourcePoint" />
            <mxPoint x="390" y="240" as="targetPoint" />
          </mxGeometry>
        </mxCell>
        <mxCell id="4nyOCPpRSjzjvYDvbEU9-30" value="" style="endArrow=none;html=1;" edge="1" parent="1" source="4nyOCPpRSjzjvYDvbEU9-28" target="4nyOCPpRSjzjvYDvbEU9-8">
          <mxGeometry width="50" height="50" relative="1" as="geometry">
            <mxPoint x="340" y="290" as="sourcePoint" />
            <mxPoint x="390" y="240" as="targetPoint" />
          </mxGeometry>
        </mxCell>
        <mxCell id="4nyOCPpRSjzjvYDvbEU9-33" value="" style="endArrow=none;dashed=1;html=1;" edge="1" parent="1" source="4nyOCPpRSjzjvYDvbEU9-21" target="4nyOCPpRSjzjvYDvbEU9-9">
          <mxGeometry width="50" height="50" relative="1" as="geometry">
            <mxPoint x="340" y="290" as="sourcePoint" />
            <mxPoint x="390" y="240" as="targetPoint" />
          </mxGeometry>
        </mxCell>
        <mxCell id="4nyOCPpRSjzjvYDvbEU9-34" value="" style="endArrow=none;dashed=1;html=1;" edge="1" parent="1" source="4nyOCPpRSjzjvYDvbEU9-21" target="4nyOCPpRSjzjvYDvbEU9-10">
          <mxGeometry width="50" height="50" relative="1" as="geometry">
            <mxPoint x="340" y="290" as="sourcePoint" />
            <mxPoint x="390" y="240" as="targetPoint" />
          </mxGeometry>
        </mxCell>
      </root>
    </mxGraphModel>
  </diagram>
</mxfile>
